{
    "asset" : {
        "generator" : "Khronos glTF Blender I/O v3.4.50",
        "version" : "2.0"
    },
    "scene" : 0,
    "scenes" : [
        {
            "name" : "Scene",
            "nodes" : [
                0,
                1,
                2,
                3,
                4
            ]
        }
    ],
    "nodes" : [
        {
            "mesh" : 0,
            "name" : "Sphere",
            "rotation" : [
                0.16773119568824768,
                -0.0449434295296669,
                -0.2548869550228119,
                0.9512512683868408
            ]
        },
        {
            "mesh" : 1,
            "name" : "Plane",
            "rotation" : [
                0.16773127019405365,
                -0.04494345933198929,
                -0.25488701462745667,
                0.951251208782196
            ],
            "scale" : [
                0.10000000149011612,
                1,
                0.10000000149011612
            ],
            "translation" : [
                -0.007853568531572819,
                -0.008089317940175533,
                -0.006865552626550198
            ]
        },
        {
            "mesh" : 2,
            "name" : "Sphere.001",
            "translation" : [
                -0.007414020597934723,
                0.03591684252023697,
                -0.3563429117202759
            ]
        },
        {
            "mesh" : 3,
            "name" : "Plane.001",
            "translation" : [
                -0.0063436683267354965,
                0.02193019911646843,
                -0.35403183102607727
            ]
        },
        {
            "mesh" : 4,
            "name" : "Torus",
            "rotation" : [
                0.26039379835128784,
                -0.1365775316953659,
                -0.09692100435495377,
                0.9508669376373291
            ],
            "translation" : [
                -0.18255004286766052,
                -0.09051205217838287,
                -0.6756358742713928
            ]
        }
    ],
    "materials" : [
        {
            "doubleSided" : true,
            "name" : "Material.001",
            "pbrMetallicRoughness" : {
                "baseColorTexture" : {
                    "index" : 0
                },
                "metallicFactor" : 0.20000000298023224,
                "roughnessFactor" : 0.30000001192092896
            }
        },
        {
            "doubleSided" : true,
            "name" : "Material.002",
            "pbrMetallicRoughness" : {
                "baseColorTexture" : {
                    "index" : 1
                },
                "metallicFactor" : 0.20000000298023224,
                "roughnessFactor" : 0.30000001192092896
            }
        }
    ],
    "meshes" : [
        {
            "name" : "Sphere",
            "primitives" : [
                {
                    "attributes" : {
                        "POSITION" : 0,
                        "TEXCOORD_0" : 1,
                        "NORMAL" : 2
                    },
                    "indices" : 3,
                    "material" : 0
                }
            ]
        },
        {
            "name" : "Plane",
            "primitives" : [
                {
                    "attributes" : {
                        "POSITION" : 4,
                        "TEXCOORD_0" : 5,
                        "NORMAL" : 6
                    },
                    "indices" : 7
                }
            ]
        },
        {
            "name" : "Sphere.001",
            "primitives" : [
                {
                    "attributes" : {
                        "POSITION" : 8,
                        "TEXCOORD_0" : 9,
                        "NORMAL" : 10
                    },
                    "indices" : 11
                }
            ]
        },
        {
            "name" : "Plane.001",
            "primitives" : [
                {
                    "attributes" : {
                        "POSITION" : 12,
                        "TEXCOORD_0" : 13,
                        "NORMAL" : 14
                    },
                    "indices" : 7
                }
            ]
        },
        {
            "name" : "Torus",
            "primitives" : [
                {
                    "attributes" : {
                        "POSITION" : 15,
                        "TEXCOORD_0" : 16,
                        "NORMAL" : 17
                    },
                    "indices" : 18,
                    "material" : 1
                }
            ]
        }
    ],
    "textures" : [
        {
            "sampler" : 0,
            "source" : 0
        },
        {
            "sampler" : 0,
            "source" : 1
        }
    ],
    "images" : [
        {
            "bufferView" : 4,
            "mimeType" : "image/png",
            "name" : "Untitled"
        },
        {
            "bufferView" : 20,
            "mimeType" : "image/png",
            "name" : "Untitled"
        }
    ],
    "accessors" : [
        {
            "bufferView" : 0,
            "componentType" : 5126,
            "count" : 4257,
            "max" : [
                0.09732828289270401,
                -0.0003808067413046956,
                0.09732824563980103
            ],
            "min" : [
                -0.09732821583747864,
                -0.09975773096084595,
                -0.0973282903432846
            ],
            "type" : "VEC3"
        },
        {
            "bufferView" : 1,
            "componentType" : 5126,
            "count" : 4257,
            "type" : "VEC2"
        },
        {
            "bufferView" : 2,
            "componentType" : 5126,
            "count" : 4257,
            "type" : "VEC3"
        },
        {
            "bufferView" : 3,
            "componentType" : 5123,
            "count" : 24576,
            "type" : "SCALAR"
        },
        {
            "bufferView" : 5,
            "componentType" : 5126,
            "count" : 4,
            "max" : [
                1,
                0,
                1
            ],
            "min" : [
                -1,
                0,
                -1
            ],
            "type" : "VEC3"
        },
        {
            "bufferView" : 6,
            "componentType" : 5126,
            "count" : 4,
            "type" : "VEC2"
        },
        {
            "bufferView" : 7,
            "componentType" : 5126,
            "count" : 4,
            "type" : "VEC3"
        },
        {
            "bufferView" : 8,
            "componentType" : 5123,
            "count" : 6,
            "type" : "SCALAR"
        },
        {
            "bufferView" : 9,
            "componentType" : 5126,
            "count" : 296,
            "max" : [
                0.09999997913837433,
                0,
                0.09999994933605194
            ],
            "min" : [
                -0.09999991953372955,
                -0.10000001639127731,
                -0.10000001639127731
            ],
            "type" : "VEC3"
        },
        {
            "bufferView" : 10,
            "componentType" : 5126,
            "count" : 296,
            "type" : "VEC2"
        },
        {
            "bufferView" : 11,
            "componentType" : 5126,
            "count" : 296,
            "type" : "VEC3"
        },
        {
            "bufferView" : 12,
            "componentType" : 5123,
            "count" : 1440,
            "type" : "SCALAR"
        },
        {
            "bufferView" : 13,
            "componentType" : 5126,
            "count" : 4,
            "max" : [
                0.10000000149011612,
                0,
                0.10000000149011612
            ],
            "min" : [
                -0.10000000149011612,
                0,
                -0.10000000149011612
            ],
            "type" : "VEC3"
        },
        {
            "bufferView" : 14,
            "componentType" : 5126,
            "count" : 4,
            "type" : "VEC2"
        },
        {
            "bufferView" : 15,
            "componentType" : 5126,
            "count" : 4,
            "type" : "VEC3"
        },
        {
            "bufferView" : 16,
            "componentType" : 5126,
            "count" : 735,
            "max" : [
                0.13382522761821747,
                0.04804675653576851,
                0.14944685995578766
            ],
            "min" : [
                -0.14961028099060059,
                -0.05226161330938339,
                -0.13678643107414246
            ],
            "type" : "VEC3"
        },
        {
            "bufferView" : 17,
            "componentType" : 5126,
            "count" : 735,
            "type" : "VEC2"
        },
        {
            "bufferView" : 18,
            "componentType" : 5126,
            "count" : 735,
            "type" : "VEC3"
        },
        {
            "bufferView" : 19,
            "componentType" : 5123,
            "count" : 4032,
            "type" : "SCALAR"
        }
    ],
    "bufferViews" : [
        {
            "buffer" : 0,
            "byteLength" : 51084,
            "byteOffset" : 0,
            "target" : 34962
        },
        {
            "buffer" : 0,
            "byteLength" : 34056,
            "byteOffset" : 51084,
            "target" : 34962
        },
        {
            "buffer" : 0,
            "byteLength" : 51084,
            "byteOffset" : 85140,
            "target" : 34962
        },
        {
            "buffer" : 0,
            "byteLength" : 49152,
            "byteOffset" : 136224,
            "target" : 34963
        },
        {
            "buffer" : 0,
            "byteLength" : 164055,
            "byteOffset" : 185376
        },
        {
            "buffer" : 0,
            "byteLength" : 48,
            "byteOffset" : 349432,
            "target" : 34962
        },
        {
            "buffer" : 0,
            "byteLength" : 32,
            "byteOffset" : 349480,
            "target" : 34962
        },
        {
            "buffer" : 0,
            "byteLength" : 48,
            "byteOffset" : 349512,
            "target" : 34962
        },
        {
            "buffer" : 0,
            "byteLength" : 12,
            "byteOffset" : 349560,
            "target" : 34963
        },
        {
            "buffer" : 0,
            "byteLength" : 3552,
            "byteOffset" : 349572,
            "target" : 34962
        },
        {
            "buffer" : 0,
            "byteLength" : 2368,
            "byteOffset" : 353124,
            "target" : 34962
        },
        {
            "buffer" : 0,
            "byteLength" : 3552,
            "byteOffset" : 355492,
            "target" : 34962
        },
        {
            "buffer" : 0,
            "byteLength" : 2880,
            "byteOffset" : 359044,
            "target" : 34963
        },
        {
            "buffer" : 0,
            "byteLength" : 48,
            "byteOffset" : 361924,
            "target" : 34962
        },
        {
            "buffer" : 0,
            "byteLength" : 32,
            "byteOffset" : 361972,
            "target" : 34962
        },
        {
            "buffer" : 0,
            "byteLength" : 48,
            "byteOffset" : 362004,
            "target" : 34962
        },
        {
            "buffer" : 0,
            "byteLength" : 8820,
            "byteOffset" : 362052,
            "target" : 34962
        },
        {
            "buffer" : 0,
            "byteLength" : 5880,
            "byteOffset" : 370872,
            "target" : 34962
        },
        {
            "buffer" : 0,
            "byteLength" : 8820,
            "byteOffset" : 376752,
            "target" : 34962
        },
        {
            "buffer" : 0,
            "byteLength" : 8064,
            "byteOffset" : 385572,
            "target" : 34963
        },
        {
            "buffer" : 0,
            "byteLength" : 301444,
            "byteOffset" : 393636
        }
    ],
    "samplers" : [
        {
            "magFilter" : 9729,
            "minFilter" : 9987
        }
    ],
    "buffers" : [
        {
            "byteLength" : 695080,
            "uri" : "data:application/octet-stream;base64,"
        }
    ]
}
